<svg xmlns="http://www.w3.org/2000/svg" xmlns:xlink="http://www.w3.org/1999/xlink" preserveAspectRatio="xMidYMid" width="64" height="64" viewBox="0 0 64 64">
  <defs>
    <style>

      .cls-3 {
        fill: #000000;
      }
    </style>
  </defs>
  <g id="group-9svg">
    <path d="M31.507,62.991 C14.138,62.991 0.007,48.860 0.007,31.491 C0.007,14.123 14.138,-0.009 31.507,-0.009 C48.876,-0.009 63.007,14.123 63.007,31.491 C63.007,48.860 48.876,62.991 31.507,62.991 ZM31.507,2.991 C15.792,2.991 3.007,15.777 3.007,31.491 C3.007,47.206 15.792,59.991 31.507,59.991 C47.222,59.991 60.007,47.206 60.007,31.491 C60.007,15.777 47.222,2.991 31.507,2.991 Z" id="path-1" class="cls-3" fill-rule="evenodd"/>
    <path d="M59.600,43.533 C59.483,43.533 59.365,43.519 59.248,43.491 C27.730,35.890 33.177,1.755 33.235,1.411 C33.351,0.737 33.919,0.226 34.600,0.167 C34.600,0.167 34.746,0.155 35.025,0.155 C36.762,0.155 45.941,0.722 56.177,11.911 C68.421,25.297 61.048,42.467 60.972,42.639 C60.728,43.191 60.183,43.533 59.600,43.533 ZM36.019,3.209 C35.351,9.196 34.220,33.524 58.680,40.247 C60.019,36.404 63.238,24.076 53.964,13.936 C45.878,5.098 38.796,3.486 36.019,3.209 Z" id="path-2" class="cls-3" fill-rule="evenodd"/>
    <path d="M19.911,60.297 C19.746,60.297 19.579,60.269 19.417,60.213 C18.808,60.000 4.458,54.819 0.804,38.556 C-2.852,22.286 7.475,12.009 7.916,11.580 C8.435,11.074 9.239,11.013 9.829,11.431 C10.113,11.632 38.102,31.918 21.190,59.579 C20.912,60.035 20.422,60.297 19.911,60.297 ZM9.145,14.681 C6.850,17.412 1.014,25.802 3.731,37.898 C6.446,49.980 15.998,55.376 19.287,56.904 C31.843,34.864 13.872,18.462 9.145,14.681 Z" id="path-3" class="cls-3" fill-rule="evenodd"/>
    <path d="M30.558,16.103 C30.004,16.103 29.471,15.795 29.210,15.264 C28.845,14.520 29.152,13.622 29.895,13.256 C29.895,13.256 37.938,9.309 37.938,9.309 C38.683,8.943 39.581,9.250 39.946,9.994 C40.312,10.737 40.004,11.636 39.261,12.001 C39.261,12.001 31.218,15.949 31.218,15.949 C31.005,16.054 30.779,16.103 30.558,16.103 Z" id="path-4" class="cls-3" fill-rule="evenodd"/>
    <path d="M32.897,23.902 C32.344,23.902 31.811,23.594 31.550,23.062 C31.185,22.319 31.492,21.420 32.235,21.055 C32.235,21.055 40.277,17.107 40.277,17.107 C41.022,16.742 41.920,17.048 42.285,17.792 C42.650,18.536 42.343,19.435 41.600,19.800 C41.600,19.800 33.558,23.748 33.558,23.748 C33.345,23.852 33.119,23.902 32.897,23.902 Z" id="path-5" class="cls-3" fill-rule="evenodd"/>
    <path d="M35.237,31.310 C34.684,31.310 34.150,31.002 33.890,30.471 C33.524,29.727 33.832,28.828 34.575,28.463 C34.575,28.463 42.617,24.515 42.617,24.515 C43.362,24.150 44.260,24.457 44.625,25.201 C44.990,25.944 44.683,26.843 43.939,27.208 C43.939,27.208 35.897,31.156 35.897,31.156 C35.685,31.261 35.459,31.310 35.237,31.310 Z" id="path-6" class="cls-3" fill-rule="evenodd"/>
    <path d="M39.916,38.329 C39.396,38.329 38.892,38.059 38.614,37.576 C38.202,36.857 38.449,35.940 39.168,35.528 C39.168,35.528 46.041,31.580 46.041,31.580 C46.758,31.167 47.676,31.415 48.089,32.134 C48.501,32.852 48.254,33.769 47.535,34.181 C47.535,34.181 40.662,38.129 40.662,38.129 C40.427,38.265 40.170,38.329 39.916,38.329 Z" id="path-7" class="cls-3" fill-rule="evenodd"/>
    <path d="M14.181,25.461 C13.627,25.461 13.094,25.153 12.833,24.622 C12.468,23.878 12.775,22.979 13.519,22.615 C13.519,22.615 21.562,18.666 21.562,18.666 C22.306,18.301 23.204,18.608 23.569,19.352 C23.935,20.096 23.627,20.994 22.884,21.359 C22.884,21.359 14.841,25.307 14.841,25.307 C14.628,25.412 14.402,25.461 14.181,25.461 Z" id="path-8" class="cls-3" fill-rule="evenodd"/>
    <path d="M16.521,33.260 C15.967,33.260 15.434,32.952 15.173,32.420 C14.808,31.677 15.115,30.778 15.858,30.413 C15.858,30.413 23.900,26.465 23.900,26.465 C24.645,26.099 25.543,26.407 25.908,27.150 C26.273,27.894 25.966,28.793 25.223,29.158 C25.223,29.158 17.181,33.106 17.181,33.106 C16.968,33.210 16.742,33.260 16.521,33.260 Z" id="path-9" class="cls-3" fill-rule="evenodd"/>
    <path d="M18.860,40.668 C18.307,40.668 17.773,40.360 17.513,39.829 C17.147,39.085 17.455,38.187 18.198,37.822 C18.198,37.822 26.240,33.874 26.240,33.874 C26.985,33.508 27.883,33.815 28.248,34.559 C28.613,35.303 28.306,36.202 27.562,36.566 C27.562,36.566 19.520,40.515 19.520,40.515 C19.308,40.619 19.082,40.668 18.860,40.668 Z" id="path-10" class="cls-3" fill-rule="evenodd"/>
    <path d="M21.199,47.687 C20.577,47.687 19.996,47.297 19.781,46.677 C19.511,45.894 19.927,45.040 20.709,44.769 C20.709,44.769 28.751,41.991 28.751,41.991 C29.539,41.719 30.388,42.136 30.659,42.919 C30.930,43.702 30.514,44.556 29.731,44.827 C29.731,44.827 21.689,47.604 21.689,47.604 C21.526,47.661 21.361,47.687 21.199,47.687 Z" id="path-11" class="cls-3" fill-rule="evenodd"/>
  </g>
</svg>
